<svg width="512" height="512" viewBox="0 0 512 512" xmlns="http://www.w3.org/2000/svg" role="img" aria-label="Cheek.Chat logo with centred bubble + guides">

  <g transform="translate(256 256) scale(1.3) translate(-255 -260)">

    <!-- 1. Speech‑bubble body -->
    <rect x="136" y="136" width="240" height="240" rx="42" ry="42" fill="#10B981"></rect>

    <!-- 2. Ear -->
    <rect x="113" y="231" width="24" height="52" rx="8" ry="8" fill="#10B981"></rect>

    <!-- 3. Tail -->
    <path d="M235 374 L195 420 L285 374 Z" fill="#10B981"></path>

    <!-- 4. Antenna -->
    <rect x="248" y="116" width="16" height="24" fill="#10B981"></rect>
    <circle cx="256" cy="104" r="18" fill="#10B981"></circle>

    <!-- 5. Face -->
    <ellipse cx="218" cy="231" rx="17" ry="21" fill="#000"></ellipse>
    <path d="M275 238 C277 215 305 210 311 238" stroke="#000" stroke-width="18" stroke-linecap="round" fill="none"></path>
    <path d="M214 286 Q256 326 298 286" stroke="#000" stroke-width="22" stroke-linecap="round" fill="none"></path>
  </g>
  <!-- ─────────────── Reference guides (front layer) ─────────────── -->
  <!-- <line x1="0" y1="256" x2="512" y2="256" stroke="#FF0000" stroke-width="2" stroke-dasharray="10 10" class=""></line> -->
  <!-- <line x1="256" y1="0" x2="256" y2="512" stroke="#FF0000" stroke-width="2" stroke-dasharray="10 10" class=""></line> -->

  <!-- ──────────── Avatar reference circle (front layer) ──────────── -->
  <!-- <circle cx="256" cy="256" r="256" stroke="#FF0000" stroke-width="3" stroke-dasharray="12 8" fill="none"></circle> -->
</svg>